# xmcd
#
# Track frame offsets:
#	150
#	14094
#	28475
#	43857
#	57591
#	71004
#	84407
#	94613
#	110763
#	129856
#	143375
#	157096
#	175254
#	183123
#	200764
#	216650
#	227828
#	241008
#
# Disc length: 3394 seconds
#
# Revision: 1
# Processed by: cddbd v1.4PL0 Copyright (c) Steve Scherf et al.
# Submitted via: EasyCDDAExtractor 6.2.0.3
#
DISCID=080d4012
DTITLE=Bailão Gaúcho 2004 - Ás Melhores
DYEAR=2003
DGENRE=Vaneirão
TTITLE0=Alagados - Alma Serrana
TTITLE1=Pinga Na Goela - Os Serranos
TTITLE2=Vai Mexendo O Panelão - Tchê Garotos
TTITLE3=Mimoso Das Gurias - Xirú Missioneiro
TTITLE4=Hora De Namorar - Tradição
TTITLE5=Forró Da Carolina - Gaúcho Da Fronteira
TTITLE6=A Jiripoca Vai Piá - Alma Serrana
TTITLE7=Limpa Banco Na Restinga - Os Serranos
TTITLE8=Isso Só Pode Ser Festa - Tchê Garotos
TTITLE9=Mundo Missioneiro - Xirú Missioneiro
TTITLE10=Tá Bão - Tradição
TTITLE11=Manda Brasa - Gaúcho Da Fronteira
TTITLE12=Vamo Namorá - Alma Serrana
TTITLE13=Casamento De Sitio - Os Serranos
TTITLE14=Tu É Veado? - Tchê Garotos
TTITLE15=Bailongo - Xirú Missioneiro
TTITLE16=Aquela Do Elefante - Tradição
TTITLE17=Ligeiramente Apaixonado - Gaúcho Da Fronteira
EXTD=
EXTT0=
EXTT1=
EXTT2=
EXTT3=
EXTT4=
EXTT5=
EXTT6=
EXTT7=
EXTT8=
EXTT9=
EXTT10=
EXTT11=
EXTT12=
EXTT13=
EXTT14=
EXTT15=
EXTT16=
EXTT17=
PLAYORDER=
